<?xml version="1.0" encoding="iso-8859-1"?>
<!-- Generator: Adobe Illustrator 24.1.2, SVG Export Plug-In . SVG Version: 6.00 Build 0)  -->
<svg version="1.1" id="Layer_1" xmlns="http://www.w3.org/2000/svg" xmlns:xlink="http://www.w3.org/1999/xlink" x="0px" y="0px"
	 width="2000px" height="1200px" viewBox="0 0 2000 1200" enable-background="new 0 0 2000 1200" xml:space="preserve">
<g>
	<path fill="#FFFFFF" d="M449.491,599.054c-0.571,10.077,7.164,18.741,17.236,19.318c0.355,0.018,0.707,0.03,1.054,0.03
		c9.689,0,17.712-7.584,18.264-17.271c0.573-10.076-7.157-18.741-17.237-19.313C458.67,581.226,450.065,589.021,449.491,599.054z"/>
	<path fill="#FFFFFF" d="M381.251,594.378c-3.26-0.187-6.059,2.308-6.24,5.571c-0.189,3.26,2.305,6.06,5.566,6.245
		c3.263,0.185,6.061-2.311,6.248-5.571C387.006,597.356,384.514,594.563,381.251,594.378z"/>
	<path fill="#FFFFFF" d="M448.329,492.844c2.916-1.469,4.093-5.028,2.622-7.948c-1.474-2.915-5.029-4.092-7.951-2.619
		c-2.915,1.469-4.089,5.028-2.618,7.945C441.853,493.142,445.408,494.313,448.329,492.844z"/>
	<path fill="#FFFFFF" d="M466.899,525.227c4.513-2.271,6.326-7.77,4.053-12.279c-2.273-4.509-7.773-6.324-12.283-4.053
		c-4.509,2.272-6.325,7.771-4.05,12.281C456.892,525.687,462.389,527.503,466.899,525.227z"/>
	<path fill="#FFFFFF" d="M404.414,547.493c3.48,2.282,8.148,1.313,10.43-2.168c2.279-3.476,1.309-8.145-2.169-10.424
		c-3.482-2.282-8.147-1.311-10.429,2.168C399.964,540.546,400.937,545.215,404.414,547.493z"/>
	<path fill="#FFFFFF" d="M415.54,591.081c-5.04-0.288-9.36,3.567-9.651,8.61c-0.287,5.045,3.57,9.362,8.611,9.653
		c5.044,0.286,9.368-3.57,9.653-8.613C424.439,595.686,420.584,591.365,415.54,591.081z"/>
	<path fill="#FFFFFF" d="M405.413,652.528c-3.713,1.87-5.206,6.401-3.333,10.114c1.87,3.715,6.401,5.206,10.112,3.336
		c3.714-1.875,5.209-6.401,3.335-10.118C413.657,652.149,409.13,650.653,405.413,652.528z"/>
	<path fill="#FFFFFF" d="M440.937,572.19c4.97,3.26,11.641,1.873,14.896-3.099c3.26-4.965,1.873-11.636-3.096-14.891
		c-4.969-3.262-11.637-1.873-14.895,3.092C434.581,562.264,435.969,568.932,440.937,572.19z"/>
	<path fill="#FFFFFF" d="M553.658,524.5c4.224,2.769,9.892,1.589,12.661-2.636c2.771-4.22,1.595-9.889-2.63-12.661
		c-4.221-2.771-9.893-1.594-12.662,2.634C548.256,516.057,549.437,521.729,553.658,524.5z"/>
	<path fill="#FFFFFF" d="M572.42,492.223c2.729,1.793,6.401,1.028,8.193-1.703c1.789-2.734,1.027-6.401-1.705-8.194
		c-2.729-1.794-6.398-1.028-8.194,1.702C568.921,486.763,569.687,490.429,572.42,492.223z"/>
	<path fill="#FFFFFF" d="M555.097,581.63c-10.137-0.589-18.748,7.204-19.316,17.233c-0.573,10.079,7.158,18.744,17.233,19.318
		c0.351,0.019,0.705,0.029,1.054,0.029c9.689,0,17.711-7.583,18.261-17.263c0.279-4.885-1.363-9.584-4.618-13.228
		C564.461,584.067,559.977,581.906,555.097,581.63z"/>
	<path fill="#FFFFFF" d="M472.913,570.923c3.128,6.209,9.395,10.071,16.36,10.071c2.831,0,5.677-0.68,8.223-1.961
		c9.014-4.543,12.652-15.573,8.11-24.587c-3.132-6.214-9.397-10.071-16.36-10.071c-2.831,0-5.677,0.68-8.223,1.958
		C472.01,550.876,468.371,561.904,472.913,570.923z"/>
	<path fill="#FFFFFF" d="M616.41,547.474c3.711-1.872,5.209-6.4,3.336-10.118c-1.874-3.715-6.401-5.206-10.115-3.334
		c-3.715,1.87-5.21,6.4-3.336,10.114C608.169,547.849,612.693,549.342,616.41,547.474z"/>
	<path fill="#FFFFFF" d="M569.985,553.305c-5.31,2.673-7.441,9.143-4.769,14.449c2.675,5.307,9.143,7.438,14.45,4.767
		c5.305-2.675,7.441-9.145,4.769-14.452C581.76,552.764,575.289,550.628,569.985,553.305z"/>
	<path fill="#FFFFFF" d="M510.225,489.464c4.152,0.236,7.71-2.937,7.947-7.093c0.235-4.151-2.939-7.711-7.091-7.946
		c-4.154-0.236-7.714,2.939-7.95,7.093C502.897,485.67,506.07,489.228,510.225,489.464z"/>
	<path fill="#FFFFFF" d="M510.139,536.85c5.932,0.337,11.016-4.2,11.354-10.133c0.337-5.933-4.2-11.02-10.135-11.355
		c-5.929-0.337-11.012,4.198-11.351,10.133C499.67,531.426,504.207,536.51,510.139,536.85z"/>
	<path fill="#FFFFFF" d="M451.839,646.697c5.309-2.675,7.443-9.145,4.772-14.45c-2.676-5.305-9.147-7.443-14.451-4.765
		c-5.306,2.673-7.441,9.138-4.768,14.447C440.067,647.234,446.534,649.368,451.839,646.697z"/>
	<path fill="#FFFFFF" d="M517.095,552.549c-5.536,8.441-3.173,19.81,5.267,25.346c2.993,1.963,6.458,3.001,10.024,3.001
		c6.203,0,11.925-3.09,15.325-8.268c5.533-8.443,3.17-19.816-5.27-25.346c-2.993-1.963-6.457-3.003-10.023-3.003
		C526.216,544.279,520.491,547.371,517.095,552.549z"/>
	<path fill="#FFFFFF" d="M548.915,629.079c-3.131-6.216-9.401-10.074-16.36-10.074c-2.834,0-5.681,0.675-8.227,1.961
		c-4.365,2.2-7.611,5.969-9.142,10.616c-1.535,4.641-1.168,9.601,1.036,13.971c3.128,6.211,9.396,10.071,16.353,10.071
		c2.837,0,5.68-0.677,8.231-1.961C549.819,649.123,553.457,638.091,548.915,629.079z"/>
	<path fill="#FFFFFF" d="M580.886,627.807c-4.965-3.255-11.639-1.868-14.897,3.097c-3.259,4.969-1.868,11.641,3.098,14.898
		c4.97,3.257,11.637,1.873,14.897-3.099C587.243,637.737,585.859,631.065,580.886,627.807z"/>
	<path fill="#FFFFFF" d="M615.933,600.31c0.29-5.043-3.569-9.367-8.615-9.655c-5.04-0.286-9.36,3.568-9.649,8.616
		c-0.289,5.04,3.568,9.362,8.614,9.65C611.323,609.209,615.648,605.348,615.933,600.31z"/>
	<path fill="#FFFFFF" d="M641.248,593.804c-3.267-0.183-6.059,2.309-6.248,5.573c-0.185,3.262,2.309,6.061,5.575,6.245
		c3.261,0.185,6.057-2.309,6.242-5.573C647.006,596.785,644.511,593.988,641.248,593.804z"/>
	<path fill="#FFFFFF" d="M617.411,652.503c-3.481-2.282-8.152-1.31-10.427,2.168c-2.282,3.477-1.312,8.148,2.167,10.429
		c3.477,2.281,8.143,1.311,10.43-2.17C621.857,659.449,620.891,654.785,617.411,652.503z"/>
	<path fill="#FFFFFF" d="M449.407,707.777c-2.732-1.794-6.401-1.03-8.193,1.702c-1.793,2.735-1.031,6.401,1.703,8.194
		c2.732,1.794,6.401,1.027,8.19-1.703C452.902,713.234,452.139,709.568,449.407,707.777z"/>
	<path fill="#FFFFFF" d="M573.494,707.156c-2.915,1.466-4.089,5.024-2.617,7.946c1.468,2.915,5.025,4.089,7.947,2.617
		c2.915-1.471,4.093-5.026,2.621-7.943C579.975,706.858,576.415,705.685,573.494,707.156z"/>
	<path fill="#FFFFFF" d="M504.732,647.446c2.68-4.089,3.611-8.977,2.615-13.762c-0.997-4.785-3.796-8.899-7.885-11.58
		c-2.993-1.963-6.461-3.003-10.028-3.003c-6.197,0-11.925,3.09-15.321,8.271c-2.681,4.089-3.61,8.978-2.611,13.764
		c0.993,4.785,3.795,8.899,7.883,11.58c2.994,1.963,6.459,2.999,10.025,2.999C495.609,655.716,501.335,652.625,504.732,647.446z"/>
	<path fill="#FFFFFF" d="M468.165,675.5c-4.223-2.771-9.89-1.591-12.661,2.631c-2.771,4.225-1.593,9.892,2.631,12.664
		c4.224,2.769,9.895,1.591,12.664-2.633C473.571,683.936,472.387,678.269,468.165,675.5z"/>
	<path fill="#FFFFFF" d="M510.827,710.533c-4.152-0.237-7.711,2.939-7.948,7.091c-0.237,4.156,2.936,7.712,7.091,7.951
		c4.152,0.234,7.714-2.941,7.948-7.095C518.152,714.328,514.979,710.767,510.827,710.533z"/>
	<path fill="#FFFFFF" d="M510.91,663.149c-5.929-0.335-11.016,4.198-11.352,10.131c-0.337,5.932,4.197,11.018,10.13,11.353
		c5.936,0.34,11.019-4.198,11.354-10.13C521.383,668.57,516.845,663.485,510.91,663.149z"/>
	<path fill="#FFFFFF" d="M554.922,674.768c-4.507,2.276-6.322,7.771-4.046,12.284c2.269,4.513,7.769,6.322,12.28,4.05
		c4.512-2.271,6.322-7.77,4.052-12.281C564.935,674.31,559.438,672.496,554.922,674.768z"/>
	<path fill="#FFFFFF" d="M756.861,556.76c17.719,0,30.126,9.746,30.126,27.822h23.215c0-31.723-23.394-46.965-53.696-46.965
		c-37.216,0-58.838,20.205-58.838,62.914c0,43.775,21.622,62.914,58.838,62.914c30.66,0,53.696-14.887,53.696-46.61h-22.329
		c0,17.722-12.228,27.471-31.012,27.471c-24.636,0-35.975-13.649-35.975-42.002v-3.545
		C720.886,570.937,732.404,556.76,756.861,556.76z"/>
	<path fill="#FFFFFF" d="M871.574,539.746l-47.32,121.573h23.394l9.746-26.405h55.651l9.921,26.405h24.457l-47.317-121.573H871.574z
		 M864.484,615.774l12.407-33.319c2.48-6.556,6.911-20.736,7.797-23.215h0.886c0.883,2.48,5.318,16.836,7.797,23.215l12.404,33.319
		H864.484z"/>
	<path fill="#FFFFFF" d="M1073.99,576.606c0-22.505-12.935-36.861-39.696-36.861h-64.152v121.573h22.684v-46.965h37.747
		l23.036,46.965h24.815l-26.053-50.507C1066.728,605.139,1073.99,593.09,1073.99,576.606z M1032.522,595.214h-39.696v-36.151h39.696
		c12.228,0,18.608,6.556,18.608,17.543C1051.13,588.128,1044.219,595.214,1032.522,595.214z"/>
	<path fill="#FFFFFF" d="M1153.58,539.746h-48.558v121.573h48.558c36.685,0,59.017-19.139,59.017-60.786
		S1190.265,539.746,1153.58,539.746z M1189.379,602.304c-0.176,26.584-12.76,39.696-35.799,39.696h-25.874v-82.936h25.874
		c23.039,0,35.799,13.115,35.799,39.696V602.304z"/>
	<path fill="#FFFFFF" d="M1271.979,539.746l-47.317,121.573h23.391l9.749-26.405h55.648l9.925,26.405h24.457l-47.32-121.573
		H1271.979z M1264.889,615.774l12.407-33.319c2.483-6.556,6.911-20.736,7.8-23.215h0.883c0.886,2.48,5.318,16.836,7.8,23.215
		l12.404,33.319H1264.889z"/>
	<path fill="#FFFFFF" d="M1451.538,612.05c0,2.304,0.352,8.507,0.352,9.573l-0.883,0.352c-0.531-0.707-4.076-6.911-6.028-9.746
		l-52.81-72.484h-21.622v121.573h21.801V588.48c0-3.011-0.358-8.859-0.358-9.745l0.889-0.531c0.531,0.707,3.187,5.849,6.021,9.925
		l53.168,73.191h21.267V539.746h-21.798V612.05z"/>
	<path fill="#FFFFFF" d="M1563.682,537.618c-38.102,0-61.141,20.205-61.141,62.914s23.039,62.914,61.141,62.914
		S1625,643.241,1625,600.532S1601.785,537.618,1563.682,537.618z M1601.785,602.48c0,27.826-13.291,41.826-38.102,41.826
		c-24.633,0-37.923-14.001-37.923-41.826v-3.721c0-27.822,13.467-41.999,37.923-41.999c24.633,0,38.102,14.177,38.102,41.999V602.48
		z"/>
</g>
</svg>
